<?xml version="1.0" standalone="no"?>
<!DOCTYPE svg PUBLIC "-//W3C//DTD SVG 20010904//EN"
 "http://www.w3.org/TR/2001/REC-SVG-20010904/DTD/svg10.dtd">
<svg version="1.0" xmlns="http://www.w3.org/2000/svg"
 width="150.000000pt" height="54.000000pt" viewBox="0 0 150.000000 54.000000"
 preserveAspectRatio="xMidYMid meet">
<metadata>
Created by potrace 1.10, written by Peter Selinger 2001-2011
</metadata>
<g transform="translate(0.000000,54.000000) scale(0.100000,-0.100000)"
fill="#000000" stroke="none">
<path d="M236 490 c-63 -25 -67 -30 -22 -30 21 0 35 4 31 9 -7 12 58 31 105
31 19 0 59 -7 89 -15 57 -15 59 -5 2 14 -51 17 -149 13 -205 -9z"/>
<path d="M492 430 c-16 -20 -19 -30 -10 -34 7 -2 2 -4 -12 -3 -19 2 -29 -6
-42 -33 -12 -22 -18 -28 -18 -16 0 15 -5 17 -26 12 -17 -5 -24 -3 -19 4 5 8
-17 10 -76 6 -74 -5 -87 -9 -106 -32 -24 -27 -29 -44 -13 -44 6 0 10 7 10 15
0 9 9 15 25 15 15 0 25 -6 25 -15 0 -14 12 -19 72 -28 20 -3 29 2 37 20 7 15
19 23 36 23 29 0 30 -3 11 -38 -8 -15 -19 -39 -25 -54 -6 -16 -17 -28 -25 -28
-26 0 -66 23 -66 37 0 17 -17 17 -23 1 -4 -10 -6 -10 -6 0 -1 17 -58 15 -65
-3 -6 -17 -42 -20 -51 -5 -4 6 -11 7 -17 4 -6 -4 -5 -9 3 -15 22 -13 4 -20
-25 -10 -35 14 -36 45 -1 39 14 -3 25 -1 25 6 0 6 5 3 11 -6 13 -24 40 -24 33
0 -5 13 -4 14 4 3 7 -10 11 -10 17 -1 5 8 29 10 79 7 69 -5 70 -5 31 7 -22 7
-78 16 -125 19 -50 3 -71 2 -50 -3 33 -7 32 -7 -17 -9 -44 -1 -53 -4 -53 -19
0 -10 -5 -23 -10 -28 -8 -8 -6 -15 4 -23 8 -7 12 -19 9 -27 -3 -8 0 -21 7 -29
10 -13 8 -15 -14 -15 -14 0 -26 -3 -26 -7 0 -5 41 -7 91 -5 63 2 89 0 84 -7
-3 -6 -28 -11 -55 -11 -27 0 -51 -4 -54 -9 -8 -12 42 -21 123 -22 36 -1 53 -4
36 -6 -52 -7 -63 -15 -30 -23 40 -10 159 -12 181 -3 16 6 16 7 -2 15 -12 5 0
6 32 3 28 -3 62 -1 75 4 20 8 17 10 -24 10 -31 1 -46 5 -42 12 5 7 46 8 125 3
79 -4 119 -3 124 4 18 29 -215 27 -269 -2 -16 -9 -45 -19 -63 -22 -44 -9 -139
23 -145 48 -4 14 -16 18 -54 19 -26 0 -41 3 -33 6 8 3 21 12 28 21 11 14 12
14 12 -1 0 -23 55 -24 64 -1 9 24 8 26 -16 18 -20 -6 -21 -5 -9 10 9 10 21 14
34 10 13 -4 17 -2 13 5 -12 18 -44 12 -60 -11 -13 -18 -16 -19 -16 -5 0 9 13
23 29 31 25 13 31 13 50 0 23 -17 28 -35 9 -31 -7 1 -13 -5 -13 -13 0 -8 -4
-18 -10 -22 -6 -4 -2 -8 8 -8 10 0 20 7 23 15 7 18 31 20 36 3 2 -6 17 -12 34
-13 16 -1 38 -5 49 -10 18 -7 18 -6 5 6 -14 13 -14 20 5 76 17 48 24 60 36 52
26 -16 41 -11 34 14 l-7 22 16 -21 c8 -12 15 -32 14 -45 -4 -66 1 -78 44 -99
40 -19 84 -28 63 -12 -16 12 -33 53 -44 110 -13 65 -14 59 2 65 10 4 13 -2 10
-16 -2 -12 0 -42 5 -67 8 -43 9 -44 19 -20 6 14 16 58 22 99 10 64 9 77 -4 90
-13 14 -15 13 -15 -6 0 -12 -4 -24 -8 -27 -5 -3 -6 8 -4 24 11 78 -31 106 -76
50z m64 -41 c3 -5 0 -9 -5 -9 -6 0 -11 -9 -11 -21 0 -31 -32 -20 -36 12 -2 22
2 27 22 27 13 0 27 -4 30 -9z m-61 -69 c22 -24 15 -35 -17 -24 -13 4 -31 7
-40 5 -10 -1 -18 1 -18 5 0 9 32 33 46 34 6 0 19 -9 29 -20z"/>
<path d="M130 415 l-23 -25 34 1 c25 0 29 2 16 8 -31 12 1 29 63 34 l55 3 -61
2 c-53 2 -63 -1 -84 -23z"/>
<path d="M85 350 c-21 -41 -19 -51 5 -15 11 16 27 33 37 37 15 6 15 7 -4 7
-15 1 -28 -9 -38 -29z"/>
<path d="M710 361 c0 -15 8 -21 32 -23 17 -2 33 -8 35 -14 5 -16 -29 -27 -38
-12 -5 8 -10 2 -14 -18 -4 -16 -9 -36 -11 -46 -7 -23 17 -35 30 -16 9 14 12
15 33 1 30 -20 31 0 1 21 -12 9 -20 17 -17 18 2 2 13 8 24 14 27 15 32 64 9
81 -10 7 -33 13 -51 13 -26 0 -33 -4 -33 -19z"/>
<path d="M1129 365 c-14 -22 -20 -105 -9 -125 13 -24 47 -26 72 -3 11 9 18 11
18 5 0 -7 11 -12 25 -12 30 0 55 42 58 97 1 29 -2 38 -16 41 -18 4 -22 -3 -32
-60 -7 -45 -25 -51 -25 -9 0 33 -20 54 -44 45 -11 -4 -16 -18 -16 -47 0 -58
-18 -35 -22 28 -2 28 -6 46 -9 40z"/>
<path d="M1383 353 c-7 -3 -13 -13 -13 -23 0 -10 -7 -21 -16 -24 -10 -4 -14
-15 -12 -33 2 -22 8 -28 29 -29 25 -1 27 3 33 49 7 51 1 68 -21 60z"/>
<path d="M936 308 c-11 -16 -16 -18 -17 -8 0 8 -5 3 -11 -12 -11 -32 -28 -37
-28 -9 0 25 -18 37 -26 17 -7 -19 13 -56 32 -56 8 0 17 7 20 15 5 13 11 11 30
-10 19 -21 31 -25 76 -24 l53 2 -46 6 c-26 4 -54 13 -63 20 -18 15 -21 37 -7
45 5 4 7 -3 4 -14 -6 -22 7 -26 25 -8 17 17 15 45 -4 52 -22 8 -21 9 -38 -16z"/>
<path d="M1306 298 c-9 -49 -8 -53 8 -56 11 -2 14 6 11 38 -4 53 -11 60 -19
18z"/>
<path d="M1027 303 c-23 -26 -25 -57 -4 -61 12 -3 17 3 17 21 0 14 10 31 23
40 22 16 22 16 1 16 -11 1 -28 -7 -37 -16z"/>
<path d="M1422 308 c-6 -6 -12 -19 -12 -28 0 -23 36 -54 55 -47 23 10 18 37
-7 38 l-23 0 23 10 c13 5 22 15 20 21 -6 18 -41 21 -56 6z"/>
<path d="M814 275 c-7 -30 -1 -40 20 -32 9 4 12 14 9 27 -8 31 -22 34 -29 5z"/>
<path d="M400 214 c-17 -61 -10 -74 42 -73 24 1 36 3 27 6 -19 5 -32 71 -17
89 6 8 0 13 -16 16 -21 4 -26 0 -36 -38z"/>
<path d="M770 190 c0 -5 5 -10 10 -10 6 0 10 -8 11 -17 0 -15 2 -15 9 2 13 30
12 35 -10 35 -11 0 -20 -4 -20 -10z"/>
<path d="M821 173 c0 -25 1 -26 9 -8 7 17 9 17 9 3 1 -13 9 -18 34 -18 24 0
28 3 17 10 -13 9 -13 10 0 10 12 0 13 2 1 9 -11 7 -11 9 0 14 10 4 8 6 -4 6
-11 1 -21 -8 -25 -21 l-5 -22 -8 22 c-12 31 -29 27 -28 -5z"/>
<path d="M910 178 c0 -22 4 -25 39 -25 33 0 39 3 39 22 0 17 -5 21 -19 18 -11
-3 -19 -13 -19 -22 -1 -12 -5 -11 -20 8 l-20 23 0 -24z"/>
<path d="M1000 175 c0 -17 5 -25 18 -25 14 0 15 2 2 10 -13 9 -13 10 0 10 12
0 13 2 1 9 -11 7 -11 9 0 14 10 4 9 6 -3 6 -13 1 -18 -7 -18 -24z"/>
<path d="M1041 173 c0 -24 2 -25 8 -9 7 18 8 18 14 3 7 -18 42 -23 52 -8 3 5
0 13 -6 17 -8 4 -7 9 2 15 11 7 10 9 -5 9 -13 0 -17 -5 -13 -20 3 -13 0 -20
-10 -20 -9 0 -13 6 -10 14 3 8 -1 17 -9 20 -23 9 -24 8 -23 -21z"/>
<path d="M1149 198 c-1 -2 -3 -13 -4 -26 -2 -20 2 -22 36 -20 43 3 45 6 25 33
-13 18 -14 18 -20 -3 -4 -12 -12 -20 -17 -16 -6 3 -8 12 -5 20 4 11 -10 22
-15 12z"/>
<path d="M1228 194 c-3 -3 -3 -14 -1 -25 5 -16 8 -18 14 -7 6 8 12 9 17 3 4
-6 25 -11 48 -11 36 -2 41 1 40 20 -1 30 -36 34 -37 4 l0 -23 -10 25 c-9 23
-12 23 -23 8 -7 -10 -17 -13 -25 -8 -11 6 -11 9 0 13 11 4 10 6 -2 6 -9 1 -18
-2 -21 -5z"/>
</g>
</svg>
