<?xml version="1.0" standalone="no"?>
<!DOCTYPE svg PUBLIC "-//W3C//DTD SVG 20010904//EN"
 "http://www.w3.org/TR/2001/REC-SVG-20010904/DTD/svg10.dtd">
<svg version="1.0" xmlns="http://www.w3.org/2000/svg"
 width="143.000000pt" height="126.000000pt" viewBox="0 0 143.000000 126.000000"
 preserveAspectRatio="xMidYMid meet">
<metadata>
Created by potrace 1.10, written by Peter Selinger 2001-2011
</metadata>
<g transform="translate(0.000000,126.000000) scale(0.100000,-0.100000)"
fill="#000000" stroke="none">
<path d="M535 1154 c-22 -8 -47 -22 -55 -31 -13 -15 -13 -16 1 -5 9 7 41 21
70 31 30 11 47 20 39 20 -8 0 -33 -7 -55 -15z"/>
<path d="M924 1116 c11 -9 15 -20 10 -28 -16 -27 -60 -70 -86 -83 -29 -16 -72
-78 -66 -97 3 -7 14 9 27 35 23 48 46 62 84 52 21 -6 21 -5 4 8 -17 14 -17 16
6 34 21 16 47 53 47 67 0 3 -10 10 -22 16 -22 10 -22 10 -4 -4z"/>
<path d="M361 1035 c-33 -38 -36 -45 -21 -45 6 0 10 6 10 13 0 15 37 51 60 60
12 4 12 6 -1 6 -10 1 -31 -15 -48 -34z"/>
<path d="M1030 1015 c-1 -11 -2 -26 -1 -32 1 -7 -3 -23 -10 -35 -11 -21 -10
-22 6 -7 11 11 15 28 12 55 -2 21 -5 30 -7 19z"/>
<path d="M580 958 c-13 -8 -12 -9 1 -5 9 3 20 2 25 -2 5 -4 25 -2 44 5 33 12
33 13 8 13 -15 1 -30 -4 -33 -9 -5 -7 -11 -8 -19 -1 -8 7 -17 6 -26 -1z"/>
<path d="M680 952 c-14 -2 -29 -8 -34 -12 -11 -11 68 -4 109 9 29 9 29 9 -10
8 -22 -1 -51 -4 -65 -5z"/>
<path d="M455 927 c-11 -12 -32 -39 -45 -59 -28 -42 -43 -48 -80 -34 -19 6
-34 5 -55 -7 l-30 -16 32 1 c18 1 30 5 27 10 -3 4 2 8 11 8 9 0 14 -4 10 -9
-3 -6 7 -8 22 -7 16 2 36 4 47 5 10 1 16 6 13 14 -2 7 6 26 19 42 25 32 31 28
13 -8 -10 -21 -10 -21 5 -3 9 11 16 29 17 40 0 21 1 21 9 1 5 -11 9 -14 9 -7
1 8 19 12 54 12 28 0 59 5 67 10 10 8 -7 9 -57 4 -55 -5 -73 -4 -73 6 0 8 9
11 25 8 14 -3 25 -1 25 3 0 18 -46 8 -65 -14z"/>
<path d="M506 875 c4 -10 0 -15 -15 -15 -12 0 -21 -4 -21 -9 0 -5 -12 -12 -27
-14 -21 -3 -17 -4 13 -6 22 0 45 4 52 11 9 9 12 9 12 0 0 -7 5 -12 12 -12 9 0
9 3 0 12 -7 7 -12 20 -12 30 0 10 -4 18 -10 18 -5 0 -7 -7 -4 -15z"/>
<path d="M540 874 c0 -9 7 -14 17 -12 25 5 28 28 4 28 -12 0 -21 -6 -21 -16z"/>
<path d="M989 857 c-14 -10 -14 -20 -5 -69 6 -32 13 -58 17 -58 3 0 2 25 -4
55 -7 41 -6 59 3 70 15 18 11 19 -11 2z"/>
<path d="M860 821 c15 -28 -3 -34 -46 -16 -46 19 -44 20 -44 -14 0 -16 -6 -44
-13 -62 -8 -19 -11 -45 -7 -59 7 -26 8 -23 27 97 5 30 8 32 32 27 36 -9 46
-20 33 -37 -8 -9 -8 -23 -2 -43 l9 -29 -1 30 c-1 37 11 75 24 75 6 0 8 -11 6
-25 -3 -13 -1 -22 3 -19 19 11 -2 94 -23 94 -5 0 -4 -9 2 -19z"/>
<path d="M430 778 c-11 -12 -18 -24 -15 -27 3 -2 15 6 26 18 16 17 30 22 55
19 18 -2 30 0 28 4 -11 17 -73 8 -94 -14z"/>
<path d="M1143 730 c0 -36 2 -50 4 -32 2 17 2 47 0 65 -2 17 -4 3 -4 -33z"/>
<path d="M283 733 c20 -2 37 -8 37 -14 0 -5 7 -9 15 -9 8 0 15 4 15 9 0 11
-37 21 -75 19 -25 -1 -24 -2 8 -5z"/>
<path d="M461 727 c-27 -14 -59 -57 -43 -57 6 0 14 9 17 20 3 11 10 20 14 20
8 0 49 29 41 30 -3 0 -16 -6 -29 -13z"/>
<path d="M995 662 c0 -36 4 -59 11 -59 6 0 9 10 7 21 -4 18 -3 19 7 6 10 -13
11 -12 5 5 -4 11 -9 35 -12 53 -9 51 -18 37 -18 -26z"/>
<path d="M564 655 c-4 -16 -13 -25 -26 -25 -10 0 -17 4 -13 9 7 12 -61 9 -72
-3 -4 -5 0 -6 10 -3 9 4 17 2 17 -3 0 -5 -12 -11 -27 -13 -16 -3 1 -3 37 -1
36 3 103 5 150 6 66 1 72 2 28 5 -43 3 -58 8 -61 21 -4 16 -5 16 -6 0 0 -10
-8 -18 -17 -18 -9 0 -14 7 -12 18 2 11 16 19 43 23 l40 6 -42 2 c-38 1 -43 -2
-49 -24z"/>
<path d="M376 643 c-7 -21 -40 -32 -100 -34 -17 0 -25 -3 -18 -6 19 -7 167 7
155 15 -5 4 -14 16 -20 26 -10 19 -11 19 -17 -1z"/>
<path d="M760 630 c0 -9 60 -20 113 -20 29 0 37 4 36 18 0 10 -3 12 -6 5 -5
-15 -51 -16 -105 -4 -21 5 -38 5 -38 1z"/>
<path d="M992 574 c3 -2 27 -6 54 -9 100 -10 136 -18 122 -26 -10 -7 -8 -9 5
-9 32 0 12 25 -21 28 -18 2 -32 6 -32 10 0 4 -30 8 -66 9 -36 1 -64 0 -62 -3z"/>
<path d="M293 553 c-7 -2 -13 -11 -13 -18 0 -15 78 -31 102 -22 7 3 -3 6 -22
7 -19 1 -44 5 -55 10 -19 8 -19 8 5 18 14 6 18 11 10 11 -8 -1 -21 -3 -27 -6z"/>
<path d="M805 520 c3 -5 25 -10 48 -10 31 0 38 3 27 10 -20 13 -83 13 -75 0z"/>
<path d="M458 503 c10 -4 8 -8 -5 -18 -17 -13 -16 -14 10 -24 16 -6 38 -11 50
-10 12 1 2 6 -23 11 -43 10 -43 10 -21 23 13 6 36 11 52 9 15 -2 31 1 34 6 4
6 -17 10 -52 9 -32 0 -52 -3 -45 -6z"/>
<path d="M909 501 c11 -7 9 -10 -10 -14 -19 -4 -18 -5 5 -4 35 2 49 27 14 27
-17 0 -20 -3 -9 -9z"/>
<path d="M726 481 c15 -14 54 -23 54 -12 0 5 21 12 48 14 32 2 22 4 -32 5 -47
1 -76 -2 -70 -7z"/>
<path d="M122 468 c-16 -16 -15 -43 1 -55 13 -11 103 -25 93 -15 -4 3 -25 8
-49 11 -37 5 -42 9 -42 31 0 21 6 26 35 31 35 6 35 6 5 8 -17 0 -36 -4 -43
-11z"/>
<path d="M231 447 c25 -16 35 -31 37 -54 4 -36 -26 -73 -58 -73 -11 0 -20 -4
-20 -9 0 -16 60 9 73 30 24 38 36 19 14 -21 -21 -38 -21 -40 -4 -57 14 -14 21
-15 35 -6 18 12 19 50 1 68 -7 7 -7 0 0 -18 12 -32 7 -47 -15 -47 -32 0 -25
51 13 88 16 17 13 34 -8 40 -11 3 -11 1 1 -8 13 -10 13 -11 0 -7 -8 2 -16 13
-18 25 -4 25 -49 72 -70 72 -8 0 0 -10 19 -23z"/>
<path d="M588 453 c28 -2 76 -2 105 0 28 2 5 3 -53 3 -58 0 -81 -1 -52 -3z"/>
<path d="M739 418 c-19 -71 -17 -152 5 -177 24 -27 70 -27 96 -1 18 18 23 19
43 6 27 -17 56 -8 84 28 20 24 21 25 26 6 7 -28 34 -36 56 -16 10 9 21 12 27
7 5 -5 26 -11 47 -14 30 -5 37 -3 36 11 0 9 -3 12 -5 7 -2 -6 -21 -9 -40 -7
-26 3 -38 10 -42 24 -3 14 -7 16 -12 8 -9 -14 -21 33 -17 65 1 14 -4 20 -15
19 -12 -1 -18 5 -18 20 0 28 -18 46 -47 46 -29 0 -39 -21 -46 -95 -3 -36 -2
-52 3 -40 5 11 9 38 9 61 1 44 15 64 43 64 26 0 33 -25 21 -76 -6 -24 -6 -41
-2 -38 5 3 9 15 9 26 0 12 3 18 7 15 3 -4 12 -2 20 4 9 9 13 8 13 0 0 -6 -4
-11 -9 -11 -5 0 -14 -13 -21 -30 -7 -16 -16 -28 -20 -25 -4 2 -17 -9 -29 -25
-23 -32 -66 -41 -89 -18 -9 9 -17 7 -35 -10 -13 -12 -35 -22 -49 -22 -49 0
-64 45 -48 141 10 57 15 69 27 64 13 -4 14 -3 3 10 -17 21 -18 20 -31 -27z
m306 -149 c-8 -12 -32 -12 -40 2 -4 5 -1 24 6 42 l13 31 13 -33 c8 -17 11 -36
8 -42z"/>
<path d="M1117 423 c-4 -3 -7 -14 -7 -23 0 -9 -11 -26 -25 -38 -14 -12 -25
-26 -25 -31 0 -5 14 4 30 19 17 15 30 37 30 48 0 11 6 23 13 25 6 3 7 6 1 6
-6 1 -14 -2 -17 -6z"/>
<path d="M1159 422 c10 -7 12 -21 8 -45 -7 -43 1 -54 20 -27 20 28 83 28 83 0
0 -19 -31 -44 -44 -35 -3 3 -3 2 0 -2 3 -5 10 -9 15 -9 5 -1 14 -2 19 -3 13
-1 13 -38 -1 -46 -18 -12 -69 16 -75 41 -7 26 -19 31 -30 12 -4 -6 -3 -8 3 -5
6 4 13 -2 16 -13 3 -11 21 -27 40 -36 30 -14 39 -15 52 -4 18 15 20 41 3 58
-9 9 -9 12 1 12 8 0 11 10 9 28 -2 23 -8 28 -36 30 -18 2 -39 -2 -47 -8 -11
-9 -14 -5 -17 21 -2 18 -10 34 -18 36 -12 4 -13 3 -1 -5z"/>
<path d="M802 408 c-7 -7 -11 -30 -10 -52 l1 -41 6 45 c5 37 10 46 29 48 13 2
30 -2 38 -8 8 -8 14 -8 14 -2 0 22 -58 30 -78 10z"/>
<path d="M146 381 c-4 -6 -2 -11 3 -11 6 0 11 -7 11 -15 0 -18 1 -18 34 -5 14
5 26 14 26 20 0 7 -9 5 -22 -4 -21 -15 -23 -14 -34 5 -7 14 -14 18 -18 10z"/>
<path d="M457 372 c-9 -10 -22 -34 -28 -53 -7 -19 -19 -43 -28 -54 -16 -20
-16 -20 7 -1 12 11 27 36 32 56 12 45 31 63 62 58 15 -2 24 -11 26 -26 4 -30
-16 -55 -40 -49 -10 3 -20 1 -23 -3 -6 -10 33 -50 48 -50 5 0 -1 9 -14 20 -18
15 -20 19 -8 20 21 0 49 32 49 56 0 43 -53 59 -83 26z"/>
<path d="M589 351 c-30 -31 -41 -90 -16 -92 6 -1 -1 -5 -18 -10 -30 -8 -30 -8
5 -5 41 4 62 -2 54 -15 -6 -11 -2 -11 20 -3 21 8 10 24 -15 24 -19 0 -19 1 -5
16 23 22 20 30 -3 10 -43 -39 -58 28 -16 69 13 14 34 25 47 25 22 -1 22 -1 3
-12 -11 -6 -21 -11 -21 -12 -1 -1 -4 -12 -8 -26 l-7 -25 15 26 c9 15 22 29 31
33 24 9 17 26 -11 26 -15 0 -38 -12 -55 -29z"/>
<path d="M130 320 c-6 -23 -10 -51 -8 -63 4 -27 37 -35 54 -13 10 15 14 15 40
1 36 -19 44 -19 44 -1 0 14 -48 51 -56 43 -2 -2 7 -10 21 -17 14 -7 25 -17 25
-21 0 -9 -39 1 -46 12 -9 15 -34 10 -34 -6 0 -8 -9 -15 -20 -15 -22 0 -24 14
-10 75 12 53 4 58 -10 5z"/>
<path d="M334 346 c-3 -8 -4 -23 -1 -33 3 -12 5 -8 6 10 2 39 29 35 33 -5 3
-35 22 -48 32 -22 5 14 4 15 -8 5 -12 -10 -15 -7 -18 21 -3 35 -33 52 -44 24z"/>
<path d="M1110 310 c-12 -7 -12 -12 -2 -22 9 -9 15 -9 24 0 16 16 -2 34 -22
22z"/>
<path d="M442 279 c9 -28 58 -52 110 -55 51 -3 45 0 -31 12 -18 3 -44 17 -58
30 -14 14 -23 20 -21 13z"/>
</g>
</svg>
