<?xml version="1.0" standalone="no"?>
<!DOCTYPE svg PUBLIC "-//W3C//DTD SVG 20010904//EN"
 "http://www.w3.org/TR/2001/REC-SVG-20010904/DTD/svg10.dtd">
<svg version="1.0" xmlns="http://www.w3.org/2000/svg"
 width="143" height="50" viewBox="0 0 300.000000 109.000000"
 preserveAspectRatio="xMidYMid meet">
<metadata>
Created by potrace 1.10, written by Peter Selinger 2001-2011
</metadata>
<g transform="translate(0.000000,109.000000) scale(0.100000,-0.100000)"
fill="#004ea4" stroke="none">
<path d="M630 1030 c-71 -8 -141 -30 -210 -66 -83 -43 -82 -44 30 -42 79 1 88
3 38 5 -38 2 -68 8 -68 13 0 14 88 56 147 69 28 7 91 13 140 13 87 0 114 -6
278 -66 11 -4 -1 4 -26 18 -85 46 -216 69 -329 56z"/>
<path d="M1036 919 c-14 -11 -26 -30 -26 -42 0 -16 -3 -18 -9 -9 -6 10 -15 6
-34 -20 -25 -32 -26 -33 -7 -40 11 -4 20 -12 20 -18 0 -7 -6 -8 -19 0 -11 5
-28 10 -38 10 -35 0 -93 -79 -93 -126 0 -24 14 -15 40 25 44 71 99 82 111 21
8 -37 40 -70 69 -70 9 0 28 8 41 18 13 11 37 22 53 26 29 7 29 7 22 -31 -4
-21 -10 -58 -12 -83 -3 -25 -8 -52 -11 -60 -8 -22 -24 39 -17 66 8 31 -14 40
-27 11 -8 -18 -8 -38 0 -76 6 -29 11 -81 11 -117 0 -59 1 -64 16 -50 8 9 12
20 9 26 -6 9 0 11 22 9 12 -1 33 91 33 146 0 28 7 85 15 129 17 87 10 116 -32
144 -22 14 -23 14 -21 -31 1 -25 -3 -52 -11 -61 -20 -24 -33 -19 -18 7 19 30
21 141 2 177 -13 25 -33 40 -54 40 -5 0 -20 -9 -35 -21z m49 -55 c0 -12 -8
-20 -22 -22 -25 -4 -31 16 -11 36 17 17 33 10 33 -14z m-47 -66 c8 -8 15 -8
26 2 19 15 46 6 46 -15 0 -8 -3 -15 -7 -15 -5 0 -14 -4 -22 -9 -12 -8 -12 -12
-2 -25 18 -21 -2 -46 -36 -46 -26 0 -39 21 -29 47 5 12 9 14 18 5 17 -17 28
-15 28 4 0 9 -5 14 -12 12 -15 -5 -48 22 -48 39 0 16 22 17 38 1z"/>
<path d="M262 841 c-48 -56 -50 -61 -22 -54 11 3 18 9 15 13 -2 3 9 22 24 41
l29 34 118 6 119 5 -121 2 -121 2 -41 -49z"/>
<path d="M1443 769 c-29 -10 -36 -38 -18 -65 13 -20 24 -24 64 -24 80 0 93
-43 20 -69 -27 -9 -29 -8 -29 15 0 25 -18 34 -24 12 -2 -7 -10 -46 -17 -86
-11 -64 -11 -75 4 -89 19 -19 47 -11 54 17 5 19 5 19 44 0 76 -39 93 -20 24
28 -46 32 -57 52 -30 52 48 0 95 52 95 104 0 26 -31 71 -61 86 -30 16 -103 27
-126 19z m94 -41 c7 -1 10 -5 7 -10 -3 -4 1 -8 9 -8 17 0 43 -28 34 -36 -3 -4
-13 1 -22 10 -9 9 -34 19 -56 22 -25 4 -39 12 -39 21 0 12 7 14 28 9 15 -4 32
-7 39 -8z m-42 -185 c0 -15 -6 -28 -13 -31 -13 -4 -16 16 -6 42 10 25 21 19
19 -11z"/>
<path d="M185 736 c-19 -29 -58 -127 -52 -132 2 -2 14 22 27 54 27 67 44 89
74 95 17 3 16 5 -6 6 -19 1 -32 -7 -43 -23z"/>
<path d="M608 735 c-16 -9 -28 -11 -28 -5 0 16 -60 12 -66 -5 -4 -8 -10 -15
-16 -15 -5 0 -6 5 -3 10 4 6 -6 10 -22 10 -22 0 -25 -2 -13 -10 11 -7 5 -8
-18 -4 -30 6 -38 3 -67 -30 -18 -21 -39 -50 -45 -66 -11 -26 -17 -29 -78 -35
-37 -3 -76 -10 -87 -16 -23 -10 31 -8 209 11 77 8 112 8 119 1 8 -8 -9 -11
-58 -11 -38 0 -105 -4 -149 -10 -45 -5 -110 -13 -146 -17 l-65 -8 0 -43 c0
-27 -4 -42 -12 -42 -7 0 -13 -6 -13 -14 0 -16 26 -46 40 -46 6 0 5 -11 -1 -26
-11 -32 -5 -55 21 -79 16 -15 30 -16 85 -10 61 6 66 9 79 38 l14 32 12 -33 c8
-23 17 -31 27 -28 8 3 32 6 53 6 28 0 40 5 43 17 4 17 5 17 6 0 1 -15 8 -18
44 -15 38 3 42 6 45 31 3 23 8 27 33 27 22 0 29 -5 29 -19 0 -28 16 -35 90
-37 35 -1 66 -7 68 -13 5 -14 39 -14 47 -1 4 6 -5 10 -20 10 -40 0 -41 24 -4
103 23 49 34 87 34 120 0 38 3 46 15 41 47 -21 88 -33 106 -34 21 0 21 1 5 34
-14 31 -18 32 -33 19 -14 -13 -20 -13 -46 1 -42 21 -72 0 -72 -52 0 -23 -14
-65 -39 -112 -31 -62 -43 -76 -65 -78 -24 -3 -26 -1 -21 21 6 21 2 26 -26 36
-17 6 -43 11 -55 11 -15 0 -40 16 -64 40 -24 24 -34 40 -25 40 9 0 12 6 9 15
-5 11 -21 15 -60 15 -48 0 -56 -3 -65 -24 -7 -14 -23 -27 -37 -31 -19 -5 -22
-9 -12 -15 11 -7 11 -14 1 -39 -16 -37 -56 -66 -96 -67 -16 0 -42 -4 -57 -8
-28 -8 -28 -8 -28 38 0 51 10 57 60 31 35 -18 51 -13 73 24 17 29 17 29 -5 24
-19 -4 -20 -3 -8 6 8 6 27 11 42 11 17 0 31 8 38 19 21 40 41 51 90 51 41 0
51 -4 67 -26 17 -23 22 -25 41 -15 12 6 22 16 22 21 0 6 22 10 49 10 89 0 67
19 -26 23 l-88 3 89 2 c77 2 87 4 76 17 -9 11 -10 18 -1 29 6 7 8 26 5 44 -5
24 -13 32 -43 39 -20 5 -63 6 -96 2 -72 -9 -150 -11 -143 -4 11 11 208 31 211
22 2 -6 47 -11 101 -13 54 -2 104 -8 111 -14 10 -8 16 -3 24 21 6 18 11 33 11
34 0 2 -35 6 -77 10 -43 3 -87 8 -98 11 -11 2 -32 -3 -47 -11z m141 -14 c18
-12 -59 -24 -109 -18 -27 3 -23 4 18 5 28 1 52 7 52 12 0 12 20 13 39 1z
m-289 -95 c0 -21 -6 -25 -51 -31 -27 -4 -52 -5 -55 -2 -3 2 1 16 7 31 10 22
18 26 56 26 39 0 43 -2 43 -24z m78 7 c-2 -10 -13 -19 -26 -21 -24 -4 -25 -2
-16 22 9 23 46 21 42 -1z m92 -18 c0 -30 -16 -33 -23 -5 -4 14 -10 18 -23 13
-12 -4 -15 -3 -10 5 4 7 18 12 32 12 19 0 24 -5 24 -25z m-379 -93 c-6 -11 -6
-24 0 -35 11 -19 -5 -25 -16 -6 -9 14 3 59 16 59 6 0 6 -6 0 -18z m-38 -7 c-1
-5 -19 -13 -40 -16 l-38 -6 37 -2 c61 -2 56 -21 -6 -21 l-54 0 15 31 c13 26
19 30 52 27 20 -2 35 -7 34 -13z m8 -75 c23 -13 26 -33 3 -28 -8 2 -14 8 -12
13 2 6 -22 13 -52 16 l-55 6 48 1 c27 1 57 -3 68 -8z m250 -4 c14 -6 56 -66
45 -66 -2 0 -18 14 -34 30 -17 17 -41 30 -55 30 -29 0 -73 -33 -82 -60 -4 -11
-10 -18 -15 -15 -5 3 -4 19 2 36 6 16 13 28 15 25 3 -3 14 4 25 14 20 18 62
21 99 6z m-37 -51 c-4 -8 -2 -15 4 -15 6 0 12 6 14 12 8 23 30 -33 23 -59 -5
-20 -8 -23 -20 -13 -8 7 -15 21 -15 31 0 20 -20 25 -36 9 -5 -5 -15 -6 -24 0
-12 7 -11 12 4 29 22 25 58 29 50 6z m184 -22 c-15 -2 -42 -2 -60 0 -18 2 -6
4 27 4 33 0 48 -2 33 -4z"/>
<path d="M2257 733 c-13 -22 -29 -157 -25 -204 4 -39 11 -58 28 -71 34 -28 77
-23 112 13 l31 30 21 -20 c63 -59 146 27 171 177 5 34 3 47 -11 63 -41 45 -94
6 -94 -70 0 -68 -10 -111 -26 -111 -20 0 -34 34 -34 83 0 72 -48 100 -95 53
-19 -19 -23 -30 -18 -64 7 -53 -4 -99 -19 -84 -7 7 -13 54 -14 109 -2 86 -12
121 -27 96z m292 -130 c-14 -52 -44 -93 -67 -93 -13 0 -12 4 7 19 20 15 25 29
28 82 3 45 9 68 21 77 15 11 17 10 20 -14 2 -15 -2 -47 -9 -71z m-155 40 c2
-10 8 -34 11 -53 4 -19 11 -40 16 -46 6 -8 -8 -20 -44 -39 -59 -29 -100 -30
-105 -2 -3 15 1 17 22 11 23 -5 28 -2 40 27 8 18 12 38 9 45 -2 7 1 15 6 19 6
3 9 11 5 16 -9 15 3 39 20 39 8 0 17 -8 20 -17z"/>
<path d="M2756 704 c-9 -8 -16 -24 -16 -35 0 -11 -16 -35 -35 -53 -39 -37 -44
-68 -19 -105 14 -20 22 -22 55 -17 24 4 39 2 39 -4 0 -5 5 -10 10 -10 6 0 10
18 10 41 0 23 7 69 16 102 15 60 15 62 -6 79 -27 22 -34 22 -54 2z m32 -66 c0
-40 -8 -68 -19 -68 -6 0 -7 5 -3 11 3 6 -8 3 -26 -6 -25 -13 -30 -14 -23 -2 8
14 66 86 70 87 1 0 2 -10 1 -22z m-22 -89 c8 -14 -18 -31 -30 -19 -9 9 0 30
14 30 5 0 12 -5 16 -11z"/>
<path d="M1875 635 c-36 -35 -35 -112 0 -148 38 -38 146 -59 213 -41 41 11 23
19 -46 20 -77 0 -138 24 -154 60 -13 28 -3 73 18 81 25 9 28 -5 5 -24 -15 -12
-20 -24 -16 -36 10 -24 32 -21 60 8 31 30 32 69 3 89 -32 22 -55 20 -83 -9z"/>
<path d="M2621 646 c-12 -14 -5 -26 16 -26 15 0 18 26 4 34 -5 3 -14 0 -20 -8z"/>
<path d="M2865 638 c-32 -17 -45 -39 -45 -75 0 -77 124 -129 138 -59 5 24 -16
46 -44 46 -39 0 -37 19 3 22 30 2 39 8 41 25 2 13 -5 27 -20 37 -26 19 -45 20
-73 4z m2 -65 c-4 -4 5 -20 20 -36 28 -30 28 -30 3 -17 -37 19 -57 60 -28 60
6 0 8 -3 5 -7z"/>
<path d="M1060 620 c-24 -24 -24 -34 -5 -120 8 -36 14 -91 15 -122 0 -50 -3
-58 -19 -58 -10 0 -24 6 -31 14 -19 24 -39 115 -33 152 4 26 0 43 -21 74 -14
22 -31 40 -36 40 -15 0 -12 -10 12 -57 22 -41 22 -43 5 -72 -21 -36 -21 -41
-2 -41 8 0 12 -6 10 -12 -3 -7 1 -35 8 -63 9 -37 17 -49 29 -47 9 1 19 -2 23
-8 3 -5 0 -11 -7 -12 -7 0 10 -4 37 -7 40 -5 51 -3 57 10 8 20 -8 174 -28 257
-17 74 -17 82 -4 62 9 -13 11 -13 20 0 22 34 1 41 -30 10z"/>
<path d="M2069 625 c-28 -15 -59 -70 -59 -104 0 -23 31 -44 54 -35 18 7 29 35
21 56 -10 25 13 67 40 74 14 3 25 10 25 15 0 14 -52 10 -81 -6z"/>
<path d="M1636 571 c-22 -48 -18 -85 10 -89 37 -5 48 20 33 78 -7 27 -16 50
-19 50 -4 0 -15 -17 -24 -39z"/>
<path d="M1707 598 c-7 -22 11 -80 31 -101 26 -25 69 -16 82 17 15 39 23 96
14 96 -5 0 -17 -20 -27 -45 -11 -25 -23 -45 -27 -45 -11 0 -23 37 -16 49 4 5
3 16 0 25 -7 19 -50 22 -57 4z"/>
<path d="M2606 571 c-22 -48 -18 -85 10 -89 36 -5 45 18 32 76 -7 29 -15 52
-19 52 -3 0 -14 -17 -23 -39z"/>
<path d="M1262 548 c16 -11 17 -27 14 -123 -2 -60 -7 -123 -10 -140 -3 -16 1
-6 9 23 11 36 15 85 13 150 -3 88 -5 97 -23 100 -19 4 -19 3 -3 -10z"/>
<path d="M810 499 c0 -19 -7 -53 -16 -76 -13 -33 -15 -53 -8 -86 l9 -42 80 -6
c44 -4 89 -10 100 -15 19 -7 19 -7 3 9 -9 9 -23 17 -31 17 -38 0 -47 12 -47
62 0 27 -5 58 -11 69 -8 15 -5 25 11 47 l22 27 -34 6 c-18 3 -43 9 -55 13 -21
7 -23 4 -23 -25z m46 -83 c3 -13 4 -37 2 -52 -4 -39 -32 -39 -36 0 -4 36 5 76
18 76 5 0 12 -11 16 -24z"/>
<path d="M1857 377 c-13 -18 -16 -19 -16 -4 -1 9 -7 17 -15 17 -10 0 -14 -12
-13 -42 2 -43 27 -68 27 -26 l0 23 19 -24 c10 -14 21 -19 24 -13 4 5 0 15 -8
22 -14 11 -14 15 0 36 19 30 2 41 -18 11z"/>
<path d="M2184 385 c-19 -15 -19 -15 5 -35 l24 -21 -21 -6 c-12 -3 -22 -9 -22
-14 0 -15 38 -10 55 8 16 15 15 18 -7 34 -20 16 -19 24 5 20 4 0 7 6 7 14 0
19 -21 19 -46 0z"/>
<path d="M2298 393 c-22 -5 -24 -39 -3 -47 22 -8 18 -26 -5 -26 -11 0 -20 -4
-20 -10 0 -16 46 -11 61 6 11 14 10 19 -11 36 l-23 19 21 6 c12 3 19 9 16 14
-5 9 -8 10 -36 2z"/>
<path d="M2366 360 c-19 -47 -20 -60 -6 -60 6 0 10 7 10 15 0 20 36 19 44 -1
3 -8 10 -13 15 -9 13 7 -20 95 -35 95 -7 0 -19 -18 -28 -40z"/>
<path d="M2539 359 c-14 -29 -17 -45 -10 -52 7 -7 12 -5 17 6 8 21 44 22 44 2
0 -8 5 -15 10 -15 6 0 10 4 10 10 0 19 -32 90 -41 90 -5 0 -18 -19 -30 -41z"/>
<path d="M2778 389 c-22 -12 -23 -35 -3 -43 8 -3 15 -10 15 -16 0 -5 -7 -10
-15 -10 -8 0 -15 -4 -15 -10 0 -11 20 -13 44 -4 21 8 21 40 0 48 -8 3 -12 10
-9 16 4 6 11 8 16 5 5 -4 9 1 9 9 0 18 -17 20 -42 5z"/>
<path d="M1545 380 c3 -5 13 -10 21 -10 10 0 13 -10 12 -31 -2 -19 2 -34 10
-36 8 -3 12 6 12 28 0 19 7 37 18 45 15 12 11 13 -31 14 -30 0 -46 -4 -42 -10z"/>
<path d="M1640 346 c0 -25 5 -46 10 -46 6 0 10 16 10 35 0 19 5 35 11 35 6 0
8 -7 5 -16 -4 -10 1 -25 10 -35 19 -21 41 -15 24 6 -5 7 -9 23 -8 36 3 20 -2
24 -29 27 -33 3 -33 3 -33 -42z"/>
<path d="M1730 345 c0 -43 1 -45 29 -45 17 0 33 5 36 10 4 6 -5 10 -19 10 -14
0 -26 5 -26 10 0 6 9 10 20 10 11 0 20 5 20 10 0 6 -9 10 -20 10 -11 0 -20 5
-20 11 0 6 9 9 20 6 11 -3 23 -1 26 4 3 5 -11 9 -30 9 -36 0 -36 0 -36 -45z"/>
<path d="M1910 345 c0 -25 5 -45 10 -45 6 0 10 10 10 23 l1 22 19 -23 c11 -13
24 -20 30 -17 8 5 6 13 -6 26 -14 15 -15 21 -4 34 7 9 10 19 6 23 -4 4 -16 -4
-27 -17 -19 -23 -19 -23 -19 -2 0 12 -4 21 -10 21 -5 0 -10 -20 -10 -45z"/>
<path d="M2000 345 c0 -43 1 -45 29 -45 17 0 33 5 36 10 4 6 -5 10 -19 10 -14
0 -26 5 -26 10 0 6 9 10 20 10 11 0 20 5 20 10 0 6 -9 10 -20 10 -11 0 -20 5
-20 11 0 6 9 9 20 6 11 -3 23 -1 26 4 3 5 -11 9 -30 9 -36 0 -36 0 -36 -45z"/>
<path d="M2080 345 c0 -33 4 -45 13 -42 7 2 11 17 9 35 -3 25 1 32 13 32 12 0
15 -5 11 -16 -7 -19 11 -57 25 -49 5 4 6 12 2 18 -5 7 -8 23 -8 37 0 21 -5 26
-32 28 -33 3 -33 3 -33 -43z"/>
<path d="M2450 344 c0 -32 4 -44 13 -41 6 2 11 11 9 20 -2 10 7 17 25 20 l28
4 -28 2 c-30 1 -34 26 -4 26 8 0 19 4 23 8 4 4 -9 7 -29 7 l-37 0 0 -46z"/>
<path d="M2630 345 c0 -25 5 -45 10 -45 6 0 10 16 10 35 0 19 5 35 11 35 6 0
8 -8 5 -17 -6 -22 19 -58 34 -48 8 5 7 11 -2 22 -7 9 -11 26 -10 39 3 21 -1
24 -27 24 -30 0 -31 -1 -31 -45z"/>
<path d="M2720 345 c0 -25 5 -45 10 -45 6 0 10 20 10 45 0 25 -4 45 -10 45 -5
0 -10 -20 -10 -45z"/>
<path d="M1122 297 c2 -25 -3 -41 -12 -47 -11 -7 -7 -10 17 -10 39 0 65 9 57
21 -3 5 -16 9 -30 9 -14 0 -23 4 -20 9 4 5 2 20 -4 33 -9 20 -9 18 -8 -15z"/>
<path d="M525 280 c3 -5 17 -10 31 -10 13 0 24 5 24 10 0 6 -14 10 -31 10 -17
0 -28 -4 -24 -10z"/>
<path d="M267 268 c-3 -10 -36 -13 -123 -13 -65 0 -121 -4 -124 -8 -3 -5 77
-8 178 -7 120 0 182 -3 182 -10 0 -13 13 -10 -115 -23 -84 -9 -110 -15 -110
-27 0 -20 48 -29 212 -36 78 -4 140 -11 137 -16 -3 -4 -27 -8 -54 -8 -57 0
-80 -7 -80 -25 0 -18 71 -25 244 -24 185 1 255 17 141 32 -16 2 31 5 105 6
185 2 222 25 60 38 -148 11 -68 23 179 25 176 2 245 6 248 15 10 28 -257 34
-436 8 -33 -4 -61 -15 -74 -29 -39 -39 -113 -59 -222 -60 -98 -1 -100 0 -97
21 3 24 -1 25 -83 38 -77 12 -80 14 -56 39 26 28 15 41 -41 51 -21 4 -38 11
-38 16 0 14 -28 11 -33 -3z"/>
</g>
</svg>
